<svg xmlns="http://www.w3.org/2000/svg" viewBox="0 0 512 512" width="512" height="512">
  <rect width="512" height="512" rx="112.64" fill="#1a1a2e"/>
  <path d="M176.48 355.45L176.48 355.45Q150.35 355.45 129.61 343.88Q108.88 332.31 96.85 310.08Q84.83 287.85 84.83 256.13L84.83 256.13Q84.83 224.15 96.98 201.92Q109.14 179.69 129.94 168.12Q150.74 156.55 176.48 156.55L176.48 156.55Q193.77 156.55 208.46 161.30Q223.15 166.04 234.46 175.14Q245.77 184.24 252.85 197.44Q259.94 210.63 262.02 227.53L262.02 227.53L215.61 227.53Q214.44 220.38 211.32 214.73Q208.20 209.07 203.32 205.04Q198.45 201.01 191.95 198.93Q185.45 196.85 177.65 196.85L177.65 196.85Q163.48 196.85 153.14 203.87Q142.81 210.89 137.28 224.09Q131.76 237.28 131.76 256.13L131.76 256.13Q131.76 275.50 137.41 288.70Q143.07 301.89 153.27 308.52Q163.48 315.15 177.39 315.15L177.39 315.15Q185.19 315.15 191.69 313.07Q198.19 310.99 203.13 306.96Q208.07 302.93 211.32 297.28Q214.57 291.62 215.74 284.47L215.74 284.47L262.15 284.47Q260.85 297.47 254.74 310.02Q248.63 322.56 237.77 332.90Q226.92 343.23 211.58 349.34Q196.24 355.45 176.48 355.45Z" fill="#e8e8f0"/>
  <path d="M334.24 352.85L256.99 352.85L256.99 334.69L288.35 334.69L288.35 250.67L256.82 274.11L256.82 252.32L284.55 232.35L308.98 232.35L308.98 334.69L334.24 334.69L334.24 352.85ZM427.17 352.85L406.54 352.85L406.54 328.92L352.89 328.92L352.89 299.04L399.28 232.35L422.39 232.35L372.70 304.48L372.70 310.76L406.54 310.76L406.54 283.52L427.17 283.52L427.17 352.85Z" fill="#d44030"/>
</svg>